# xmcd
#
# Track frame offsets: 
#        150
#        17253
#        35425
#        54875
#        75420
#        100663
#        114853
#        137675
#        157360
#        173068
#        185315
#        198200
#        217875
#        235013
#        253523
#        270968
#
# Disc length: 3840 seconds
#
# Revision: 2
# Processed by: cddbd v1.5.2PL0 Copyright (c) Steve Scherf et al.
# Submitted via: ExactAudioCopyFreeDBPlugin 1.0
#
DISCID=b80efe10
DTITLE=David Williams - Route 66
DYEAR=1994
DGENRE=Folk/Rock
TTITLE0=Route 66
TTITLE1=Chicago, Chicago By The Lake
TTITLE2=Summer Blue
TTITLE3=When The Road Used To Run
TTITLE4=Mississippi Blues Guitar
TTITLE5=Flood Water
TTITLE6=It's All Right My Dear
TTITLE7=Born In Joplin
TTITLE8=Spook Light
TTITLE9=On The Road
TTITLE10=Draggin' The Gut
TTITLE11=Day Old Worries
TTITLE12=Shooting For Heartaches Tonight
TTITLE13=Carnival Song, The
TTITLE14=Going Off The Edge Of The World
TTITLE15=Route 66
EXTD=
EXTT0=
EXTT1=
EXTT2=
EXTT3=
EXTT4=
EXTT5=
EXTT6=
EXTT7=
EXTT8=
EXTT9=
EXTT10=
EXTT11=
EXTT12=
EXTT13=
EXTT14=
EXTT15=
PLAYORDER=
